<svg xmlns="http://www.w3.org/2000/svg" xmlns:xlink="http://www.w3.org/1999/xlink" width="120" height="120" viewBox="0 0 120 120">
  <defs>
    <style>
      .cls-1, .cls-11 {
        fill: #fff;
      }

      .cls-1 {
        stroke: #707070;
      }

      .cls-2 {
        fill: none;
      }

      .cls-3 {
        clip-path: url(#clip-path);
      }

      .cls-4 {
        fill: #98375e;
      }

      .cls-5 {
        clip-path: url(#clip-path-2);
      }

      .cls-6 {
        fill: #c05371;
      }

      .cls-7 {
        fill: #fdcc9b;
      }

      .cls-8 {
        fill: #fcbc85;
      }

      .cls-9 {
        fill: #401900;
      }

      .cls-10 {
        fill: #3b2519;
      }

      .cls-12 {
        fill: #f7945e;
      }

      .cls-13 {
        fill: #342620;
        fill-rule: evenodd;
      }
    </style>
    <clipPath id="clip-path">
      <rect id="矩形_7" data-name="矩形 7" class="cls-1" width="120" height="120" transform="translate(482 75)"/>
    </clipPath>
    <clipPath id="clip-path-2">
      <path id="路径_42" data-name="路径 42" class="cls-2" d="M78.6,120h0a4.819,4.819,0,0,0-.318-2.413C74.653,108.275,60.766,100.4,40.565,100.4s-34.7,7.854-37.782,17.166a5.374,5.374,0,0,0-.237,2.421h0Z"/>
    </clipPath>
  </defs>
  <g id="男_16" data-name="男 16" transform="translate(-482 -75)">
    <g id="蒙版组_4" data-name="蒙版组 4" class="cls-3">
      <g id="图层_2" data-name="图层 2" transform="translate(502.679 75)">
        <g id="图层_1" data-name="图层 1">
          <path id="路径_41" data-name="路径 41" class="cls-4" d="M78.6,120h0a4.819,4.819,0,0,0-.318-2.413C74.653,108.275,60.766,100.4,40.565,100.4s-34.7,7.854-37.782,17.166a5.374,5.374,0,0,0-.237,2.421h0Z"/>
          <g id="组_1" data-name="组 1" class="cls-5">
            <rect id="矩形_27" data-name="矩形 27" class="cls-6" width="7.972" height="52.498" transform="translate(12.599 90.028)"/>
            <rect id="矩形_28" data-name="矩形 28" class="cls-6" width="3.982" height="52.498" transform="translate(21.822 90.028)"/>
            <rect id="矩形_29" data-name="矩形 29" class="cls-6" width="7.972" height="52.498" transform="translate(67.969 142.518) rotate(180)"/>
            <rect id="矩形_30" data-name="矩形 30" class="cls-6" width="3.982" height="52.498" transform="translate(58.745 142.518) rotate(180)"/>
          </g>
          <path id="路径_43" data-name="路径 43" class="cls-7" d="M31.179,75.112h16.84v24.82a7.521,7.521,0,0,1-7.521,7.521H38.7a7.521,7.521,0,0,1-7.521-7.521Z"/>
          <path id="路径_44" data-name="路径 44" class="cls-8" d="M30.616,90.309l17.4-.3v3.879a29.017,29.017,0,0,1-17.4-3.583Z"/>
          <rect id="矩形_31" data-name="矩形 31" class="cls-8" width="78.643" height="21.815" rx="10.907" transform="translate(0 50.41)"/>
          <path id="路径_45" data-name="路径 45" class="cls-7" d="M71.063,56.65c0,18.9-3.982,34.961-31.49,34.961S8.143,75.549,8.143,56.65,22.207,22.429,39.6,22.429,71.063,37.752,71.063,56.65Z"/>
          <path id="路径_46" data-name="路径 46" class="cls-9" d="M23.969,49.278c2.028,0,4.945,1.48,4.945.851,0-2.31-2.221-4.182-4.945-4.182s-4.945,1.873-4.945,4.182C19.024,50.721,21.941,49.278,23.969,49.278Z"/>
          <ellipse id="椭圆_18" data-name="椭圆 18" class="cls-10" cx="4.005" cy="3.916" rx="4.005" ry="3.916" transform="translate(20.023 54.659)"/>
          <ellipse id="椭圆_19" data-name="椭圆 19" class="cls-11" cx="1.606" cy="1.355" rx="1.606" ry="1.355" transform="translate(20.815 55.54)"/>
          <path id="路径_47" data-name="路径 47" class="cls-9" d="M54.7,49.278c2.036,0,4.945,1.48,4.945.851,0-2.31-2.221-4.182-4.945-4.182s-4.945,1.873-4.945,4.182C49.751,50.721,52.668,49.278,54.7,49.278Z"/>
          <ellipse id="椭圆_20" data-name="椭圆 20" class="cls-10" cx="4.005" cy="3.916" rx="4.005" ry="3.916" transform="translate(50.751 54.659)"/>
          <ellipse id="椭圆_21" data-name="椭圆 21" class="cls-11" cx="1.606" cy="1.355" rx="1.606" ry="1.355" transform="translate(51.55 55.54)"/>
          <path id="路径_48" data-name="路径 48" class="cls-8" d="M39.321,71.9c-2.221,0-4.656-1.621-4.656-1.325,0,2.08,2.087,3.02,4.656,3.02s4.649-.94,4.649-3.02C43.97,70.278,41.527,71.9,39.321,71.9Z"/>
          <path id="路径_49" data-name="路径 49" class="cls-8" d="M39.321,83.647a21.889,21.889,0,0,1-4.382-.822c0,.822,1.962,1.48,4.382,1.48s4.375-.674,4.375-1.48A20.093,20.093,0,0,1,39.321,83.647Z"/>
          <path id="路径_50" data-name="路径 50" class="cls-12" d="M39.321,80.412c-4.4,0-9.26-1.91-9.26-1.673,0,1.68,4.145,3.05,9.26,3.05s9.253-1.369,9.253-3.05C48.574,78.5,43.711,80.412,39.321,80.412Z"/>
          <g id="组_2" data-name="组 2" class="cls-5">
            <path id="路径_51" data-name="路径 51" class="cls-6" d="M39.529,88.3c-6.262,0-11.333,4.441-11.333,9.9s5.071,9.9,11.333,9.9,11.326-4.441,11.326-9.9S45.784,88.3,39.529,88.3Zm0,17.766c-4.96,0-8.979-3.516-8.979-7.847s4.019-7.847,8.979-7.847S48.5,93.884,48.5,98.222s-4.012,7.832-8.972,7.832Z"/>
          </g>
          <path id="路径_53" data-name="路径 53" class="cls-13" d="M1.569,31.912C3.479,9.623,21.585,0,39.6,0S75.719,9.623,77.636,31.912s-3.827,39.914-6.929,37.752S72.351,38.492,62.7,40.3c-15.227,2.872-40.854-9.793-40.854-9.793s.074,7.6-5.922,11.377c-11.688,7.343-4.323,25.664-7.4,27.8S-.348,54.163,1.569,31.912Z"/>
          <path id="路径_54" data-name="路径 54" class="cls-13" d="M48.515,88.473c-2.487-.873-4.39-2.221-8.513-2.28H39.81c-4.131.044-6.026,1.406-8.513,2.28s-9.053-1.584-8.468,0,7.439,5.085,16.981,5.137h.163c9.534-.052,16.4-3.568,16.981-5.137S51.076,89.362,48.515,88.473Z"/>
        </g>
      </g>
    </g>
  </g>
</svg>
